<svg width="91" height="29" viewBox="0 0 91 29" fill="none" xmlns="http://www.w3.org/2000/svg">
<path d="M6.14474 14.3344C6.14474 14.3344 6.28282 14.3526 6.53187 14.3734C8.71411 14.5568 10.9094 14.2461 12.9571 13.464C15.0048 12.6819 16.8529 11.4481 18.3663 9.85311C23.7564 4.16893 28.0702 2.14416 32.748 3.36787C45.7451 6.76719 29.9013 20.6012 29.9013 20.6012L14.8189 23.3867L6.14474 14.3344Z" fill="#009FEB"/>
<path d="M1.04889 15.3799C1.04889 15.3799 -1.75389 6.08186 1.80379 7.87255C8.51395 11.2472 18.3508 27.6235 26.5269 13.9846L20.9136 23.6455L10.8083 24.7768L3.64005 19.9887L1.04889 15.3799Z" fill="#009FEB"/>
<path d="M40.1859 6.89072C39.5407 7.27305 38.6916 8.01559 38.049 9.43306C37.5445 10.5488 37.169 12.0807 37.1251 14.1835C37.0722 16.7077 36.1895 18.9847 34.743 20.9354C31.3659 25.4947 24.9113 28.275 18.7753 28.275C8.96818 28.275 1.12115 20.5439 0.0875244 10.939C1.08502 17.4333 6.47767 22.6649 13.2007 22.6649C15.6736 22.6658 18.0988 21.9795 20.2097 20.6814C22.3206 19.3833 24.0354 17.5237 25.1655 15.3071C25.7164 14.2343 26.1206 13.0913 26.3669 11.9091C26.3707 11.8924 26.3733 11.8755 26.3746 11.8584C26.394 11.4318 30.5904 5.89199 36.5779 5.94271C37.6348 5.95181 38.7975 6.10656 40.0801 6.31593C40.1427 6.32633 40.2006 6.3559 40.2459 6.40063C40.2911 6.44536 40.3216 6.50307 40.3332 6.5659C40.3448 6.62874 40.3368 6.69363 40.3105 6.75176C40.2841 6.80988 40.2407 6.8584 40.1859 6.89072Z" fill="#009FEB"/>
<path d="M41.3176 6.75289C41.3176 6.75289 46.6084 0.682473 46.7942 5.5825C46.98 10.4825 41.3176 6.75289 41.3176 6.75289Z" fill="#009FEB"/>
<path d="M40.4827 5.78667C40.4827 5.78667 36.4747 -1.20834 41.137 0.183121C45.7993 1.57458 40.4827 5.78667 40.4827 5.78667Z" fill="#009FEB"/>
<path d="M61.1455 2.016C61.3855 2.016 61.5775 2.028 61.7215 2.052V2.088C61.0495 4.248 60.2575 6.36 59.3455 8.424C58.4335 10.488 57.4855 12.552 56.5015 14.616C55.5175 16.656 54.5575 18.708 53.6215 20.772C52.6855 22.812 51.8575 24.888 51.1375 27C50.9935 26.976 50.8495 26.964 50.7055 26.964C50.5615 26.964 50.4055 26.964 50.2375 26.964C49.7335 26.964 49.1815 26.976 48.5815 27C47.9815 27.048 47.4055 27.072 46.8535 27.072C46.7095 27.072 46.5655 27.072 46.4215 27.072C46.2775 27.072 46.1335 27.06 45.9895 27.036H45.9175C46.5415 25.092 47.2735 23.064 48.1135 20.952C48.9535 18.816 49.7935 16.692 50.6335 14.58V14.508C50.3695 13.452 50.0335 12.408 49.6255 11.376C49.2175 10.32 48.7855 9.276 48.3295 8.244C47.8975 7.212 47.4775 6.18 47.0695 5.148C46.6615 4.116 46.3375 3.096 46.0975 2.088C46.5775 2.088 47.0815 2.052 47.6095 1.98C48.1375 1.908 48.6655 1.872 49.1935 1.872C49.4815 1.872 49.7695 1.896 50.0575 1.944C50.3455 1.968 50.6215 2.04 50.8855 2.16C51.0055 2.688 51.1735 3.312 51.3895 4.032C51.6295 4.752 51.8695 5.484 52.1095 6.228C52.3735 6.972 52.6375 7.68 52.9015 8.352C53.1895 9.024 53.4415 9.588 53.6575 10.044C53.8975 9.612 54.1375 9.06 54.3775 8.388C54.6415 7.692 54.8935 6.972 55.1335 6.228C55.3975 5.484 55.6495 4.752 55.8895 4.032C56.1295 3.312 56.3575 2.712 56.5735 2.232C57.0055 2.136 57.5815 2.076 58.3015 2.052C59.0455 2.004 59.7295 1.98 60.3535 1.98C60.6415 1.98 60.9055 1.992 61.1455 2.016ZM69.4376 1.62C72.0536 1.596 74.5976 1.716 77.0696 1.98C77.1176 2.772 77.1296 3.684 77.1056 4.716C77.1056 5.748 77.0456 6.696 76.9256 7.56C76.4696 7.464 75.9056 7.428 75.2336 7.452C74.5616 7.476 73.6616 7.512 72.5336 7.56H72.4616H72.4256C72.4256 7.584 72.4136 7.608 72.3896 7.632C72.3896 7.632 72.3896 7.644 72.3896 7.668C72.3656 7.788 72.3416 7.98 72.3176 8.244C72.3176 8.484 72.3176 8.88 72.3176 9.432C72.3176 9.96 72.3176 10.668 72.3176 11.556C72.3416 12.42 72.3656 13.548 72.3896 14.94C72.4136 16.308 72.4376 17.964 72.4616 19.908C72.4856 21.828 72.5216 24.096 72.5696 26.712V26.748V26.784C72.1376 26.856 71.6576 26.904 71.1296 26.928C70.6256 26.928 70.1096 26.928 69.5816 26.928C69.0776 26.928 68.5736 26.928 68.0696 26.928C67.5656 26.928 67.0976 26.964 66.6656 27.036C66.6416 26.94 66.6416 26.508 66.6656 25.74C66.6896 24.972 66.7016 23.832 66.7016 22.32C66.7256 20.784 66.7136 18.828 66.6656 16.452C66.6416 14.076 66.5576 11.208 66.4136 7.848L66.3776 7.812C66.0896 7.668 65.7296 7.584 65.2976 7.56C64.8656 7.512 64.4336 7.488 64.0016 7.488C63.5696 7.464 63.1736 7.452 62.8136 7.452C62.4536 7.452 62.2016 7.428 62.0576 7.38C62.0096 7.284 61.9616 7.044 61.9136 6.66C61.8896 6.276 61.8656 5.82 61.8416 5.292C61.8416 4.74 61.8416 4.152 61.8416 3.528C61.8416 2.904 61.8656 2.304 61.9136 1.728C61.9136 1.704 61.9016 1.692 61.8776 1.692C61.8776 1.692 61.8776 1.68 61.8776 1.656C64.3256 1.632 66.8456 1.62 69.4376 1.62Z" fill="#009FEB"/>
</svg>
