<svg width="47" height="29" viewBox="0 0 47 29" fill="none" xmlns="http://www.w3.org/2000/svg">
<path d="M6.14474 14.3344C6.14474 14.3344 6.28282 14.3526 6.53187 14.3734C8.71411 14.5568 10.9094 14.2461 12.9571 13.464C15.0048 12.6819 16.8529 11.4481 18.3663 9.85311C23.7564 4.16893 28.0702 2.14416 32.748 3.36787C45.7451 6.76719 29.9013 20.6012 29.9013 20.6012L14.8189 23.3867L6.14474 14.3344Z" fill="#009FEB"/>
<path d="M1.04889 15.3799C1.04889 15.3799 -1.75389 6.08186 1.80379 7.87255C8.51395 11.2472 18.3508 27.6235 26.5269 13.9846L20.9136 23.6455L10.8083 24.7768L3.64005 19.9887L1.04889 15.3799Z" fill="#009FEB"/>
<path d="M40.1859 6.89072C39.5407 7.27305 38.6916 8.01559 38.049 9.43306C37.5445 10.5488 37.169 12.0807 37.1251 14.1835C37.0722 16.7077 36.1895 18.9847 34.743 20.9354C31.3659 25.4947 24.9113 28.275 18.7753 28.275C8.96818 28.275 1.12115 20.5439 0.0875244 10.939C1.08502 17.4333 6.47767 22.6649 13.2007 22.6649C15.6736 22.6658 18.0988 21.9795 20.2097 20.6814C22.3206 19.3833 24.0354 17.5237 25.1655 15.3071C25.7164 14.2343 26.1206 13.0913 26.3669 11.9091C26.3707 11.8924 26.3733 11.8755 26.3746 11.8584C26.394 11.4318 30.5904 5.89199 36.5779 5.94271C37.6348 5.95181 38.7975 6.10656 40.0801 6.31593C40.1427 6.32633 40.2006 6.3559 40.2459 6.40063C40.2911 6.44536 40.3216 6.50307 40.3332 6.5659C40.3448 6.62874 40.3368 6.69363 40.3105 6.75176C40.2841 6.80988 40.2407 6.8584 40.1859 6.89072Z" fill="#009FEB"/>
<path d="M41.3176 6.75289C41.3176 6.75289 46.6084 0.682473 46.7942 5.5825C46.98 10.4825 41.3176 6.75289 41.3176 6.75289Z" fill="#009FEB"/>
<path d="M40.4827 5.78667C40.4827 5.78667 36.4747 -1.20834 41.137 0.183121C45.7993 1.57458 40.4827 5.78667 40.4827 5.78667Z" fill="#009FEB"/>
</svg>
